<?xml version="1.0" encoding="iso-8859-1"?>
<!-- Generator: Adobe Illustrator 19.0.0, SVG Export Plug-In . SVG Version: 6.00 Build 0)  -->
<svg version="1.1" id="Layer_1" xmlns="http://www.w3.org/2000/svg" xmlns:xlink="http://www.w3.org/1999/xlink" x="0px" y="0px"
	 viewBox="0 0 511.999 511.999" style="enable-background:new 0 0 511.999 511.999;" xml:space="preserve">
<polygon style="fill:#E6E9ED;" points="391.007,218 365.007,178 327.007,224 281.507,239.172 234.726,242.594 198.007,232 
	137.007,178 97.007,298 97.007,391 146.007,506 170.007,506 337.007,506 369.507,494 419.007,357 "/>
<path style="fill:#F5F7FA;" d="M318.007,294l-24.672,42.672L262.679,350l-38.625-4l-27.375-57.328l-90.672,26.656l5.328,18
	L166.679,380c0,0,70,16,74,16s82.656-12,82.656-12l68-45.328l17.344-25.344L318.007,294z"/>
<rect x="137.009" y="455.5" style="fill:#4FC2E9;" width="236" height="44"/>
<g>
	<path style="fill:#ED5564;" d="M277.397,371.344c0,11.781-9.547,21.328-21.328,21.328c-11.797,0-21.344-9.547-21.344-21.328
		c0-11.797,9.547-21.344,21.344-21.344C267.851,350,277.397,359.547,277.397,371.344z"/>
	<polygon style="fill:#ED5564;" points="213.382,236.438 167.007,208 153.007,178 115.007,227.328 98.007,307 181.007,295 
		250.007,254.656 	"/>
	<polygon style="fill:#ED5564;" points="303.632,239.438 350.007,211 364.007,181 402.007,230.328 419.007,310 336.007,298 
		267.007,257.656 	"/>
</g>
<polygon style="fill:#EAC6BB;" points="259.007,100 206.507,128 137.007,135.906 148.507,179.5 184.507,226.5 250.007,247.5 
	314.257,230.5 356.507,183 369.507,141 "/>
<g>
	<polygon style="fill:#FFCE54;" points="362.007,73.344 327.007,37.344 256.054,10.016 190.007,37.344 213.382,64.672 
		277.382,106.656 373.007,135.906 	"/>
	<polygon style="fill:#FFCE54;" points="186.007,37.344 157.007,64.672 137.007,128 213.382,125.234 250.007,100.672 	"/>
</g>
<path d="M375.851,173.156c5.297-14.031,8.203-29.25,8.203-45.156c0-70.688-57.312-128-128-128s-128,57.312-128,128
	c0,15.859,2.891,31.047,8.172,45.062c-31.469,41.906-50.984,100.172-50.984,164.625c0,69.562,22.734,131.969,58.703,174.312h224.109
	c35.969-42.344,58.703-104.75,58.703-174.312C426.757,273.281,407.272,215.062,375.851,173.156z M381.288,451.5l-11.031-11.031l0,0
	c-1.922-1.938-4.594-3.125-7.531-3.125c-2.953,0-5.625,1.188-7.547,3.125l0,0l-13.797,13.781l-13.781-13.781l0,0
	c-1.938-1.938-4.609-3.125-7.547-3.125c-2.953,0-5.609,1.188-7.547,3.125l0,0l-13.812,13.812l-13.812-13.812l0,0
	c-1.938-1.938-4.609-3.125-7.547-3.125c-2.953,0-5.609,1.188-7.547,3.125l0,0l-13.797,13.781l-13.781-13.781l0,0
	c-1.938-1.938-4.594-3.125-7.547-3.125c-2.938,0-5.609,1.188-7.547,3.125l0,0l-13.781,13.781l-13.797-13.781l0,0
	c-1.922-1.938-4.594-3.125-7.547-3.125c-2.938,0-5.609,1.188-7.531,3.125l0,0l-13.797,13.781l-13.781-13.781l0,0
	c-1.938-1.938-4.609-3.125-7.547-3.125c-2.953,0-5.609,1.188-7.547,3.125l0,0l-11.062,11.062
	c-15.094-32.5-23.562-70.375-24.109-109.781c5.766,7.016,13.172,14.891,22.406,22.656c15.5,13.062,33.016,23.188,52.031,30.109
	c20.297,7.391,42.312,11.109,65.609,11.109c3.094,0,6.219-0.062,9.359-0.188c3.141,0.125,6.266,0.188,9.359,0.188
	c23.297,0,45.328-3.719,65.609-11.109c19.031-6.922,36.531-17.047,52.031-30.109c9.219-7.75,16.609-15.594,22.359-22.578
	C404.819,381.188,396.366,419.031,381.288,451.5z M360.726,148.688c-4.031,20.609-14.062,39.562-29.25,54.734
	c-20.141,20.141-46.938,31.234-75.422,31.234c-28.5,0-55.281-11.094-75.422-31.234c-16.531-16.516-26.969-37.516-30.172-60.266
	c2.969,0.125,5.891,0.188,8.734,0.188c55.156,0,87.562-22.812,100.453-34.406C285.491,123.172,318.663,137.312,360.726,148.688z
	 M244.304,270.5c1.531,4,5.406,6.844,9.938,6.844c5.516,0,10.047-4.188,10.609-9.547c5.188,4.859,11.625,10.188,19.469,15.516
	c6.047,4.094,12.453,7.891,19.188,11.359c-0.531,4.609-1.906,11.391-5.375,18.375c-7.188,14.469-20.297,24.016-39.016,28.438
	c-1.031-0.094-2.062-0.141-3.125-0.141c-1.031,0-2.062,0.031-3.062,0.141c-18.719-4.422-31.828-13.969-39-28.438
	c-3.469-6.969-4.844-13.734-5.391-18.344c6.766-3.484,13.188-7.281,19.25-11.391C234.21,278.953,239.679,274.594,244.304,270.5z
	 M245.335,373.344c0-5.891,4.781-10.688,10.656-10.688c5.891,0,10.672,4.797,10.672,10.688c0,5.875-4.781,10.656-10.672,10.656
	C250.116,384,245.335,379.219,245.335,373.344z M282.757,355.781c19.219-9.062,29.516-22.812,34.984-34.297
	c3.031-6.328,4.828-12.484,5.906-17.797c4.125,1.594,8.344,3.094,12.656,4.469c18.156,5.812,37.969,9.688,59.109,11.562
	c-5.453,7.75-14.25,18.5-26.844,28.969c-13.562,11.281-28.859,20.031-45.453,26c-11.562,4.156-23.828,6.969-36.641,8.438
	c0.984-3.094,1.516-6.375,1.516-9.781C287.991,366.844,286.069,360.812,282.757,355.781z M188.413,303.719
	c1.078,5.281,2.875,11.438,5.891,17.766c5.469,11.484,15.766,25.203,34.953,34.266c-3.312,5.062-5.266,11.094-5.266,17.594
	c0,3.406,0.547,6.688,1.531,9.766c-12.797-1.469-25.031-4.266-36.594-8.422c-16.594-5.969-31.875-14.719-45.453-26
	c-12.578-10.453-21.375-21.219-26.828-28.969c21.156-1.875,40.984-5.75,59.156-11.562
	C180.101,306.781,184.304,305.312,188.413,303.719z M392.976,254.125c4.516,14.469,7.812,29.438,9.875,44.781
	c-51.953-3.688-85.75-19.375-105.391-32.469c-6.469-4.312-11.984-8.719-16.547-12.859c35.578-7,65.875-28.75,84.25-58.609
	C376.804,212.422,386.147,232.281,392.976,254.125z M331.476,52.578c19.938,19.922,31,46.359,31.234,74.516
	c-63.953-17.781-104.969-42.156-128.422-59.859c-17.344-13.109-27.781-24.484-32.953-30.844
	c16.359-9.828,35.141-15.047,54.719-15.047C284.538,21.344,311.335,32.438,331.476,52.578z M180.632,52.578
	c1.156-1.172,2.359-2.297,3.562-3.406c7.719,9.688,24.953,28.297,56,48.203c-13.812,10.562-43.156,26.828-90.625,24.375
	C151.069,95.609,161.96,71.25,180.632,52.578z M146.897,194.875c18.375,29.938,48.719,51.719,84.359,58.719
	c-18.703,16.969-56.172,40.703-122.109,45.328c2.062-15.359,5.359-30.328,9.875-44.797
	C125.866,232.25,135.226,212.359,146.897,194.875z M357.851,490.656H154.147c-4.656-6.094-9-12.562-13.031-19.344l8.219-8.219
	l13.781,13.781l0,0c1.938,1.938,4.609,3.125,7.547,3.125c2.953,0,5.609-1.188,7.547-3.125l0,0l13.781-13.781l13.797,13.781
	c1.938,1.938,4.594,3.125,7.547,3.125c2.938,0,5.609-1.188,7.547-3.125l13.781-13.781l13.797,13.781l0,0
	c1.922,1.938,4.594,3.125,7.531,3.125c2.953,0,5.625-1.188,7.547-3.125l0,0l13.797-13.781l13.781,13.781l0,0
	c1.938,1.938,4.609,3.125,7.547,3.125c0.016,0,0.016,0,0.031,0s0.016,0,0.031,0c2.938,0,5.609-1.188,7.531-3.125l13.797-13.781
	l13.797,13.781l0,0c1.922,1.938,4.594,3.125,7.531,3.125c2.953,0,5.609-1.188,7.547-3.125l0,0l13.797-13.781l8.172,8.172
	C366.866,478.062,362.522,484.562,357.851,490.656z"/>
<path d="M288.054,170.656c5.891,0,10.672-4.766,10.672-10.656s-4.781-10.656-10.672-10.656S277.382,154.11,277.382,160
	S282.163,170.656,288.054,170.656z"/>
<path d="M234.726,192c-5.891,0-10.672,4.781-10.672,10.656c0,0.938,0.125,1.844,0.359,2.719h-0.016
	c0.031,0.109,0.078,0.25,0.109,0.391c0.016,0.047,0.031,0.078,0.047,0.141c0.562,1.812,2.281,6.078,6.844,10.094
	c6.016,5.312,14.328,8,24.703,8c20.656,0,29.391-11.156,31.469-18.156c0-0.016,0.016-0.031,0.016-0.047
	c0.047-0.172,0.094-0.344,0.141-0.516h-0.016c0.219-0.844,0.344-1.719,0.344-2.625c0-5.875-4.781-10.656-10.672-10.656
	c-4.703,0-8.688,3.047-10.109,7.281c-0.641,1.188-3.75,3.375-11.172,3.375c-7.5,0-10.656-2.25-11.312-3.469
	C243.351,195,239.397,192,234.726,192z M267.163,199.625c-0.031,0.125-0.078,0.281-0.109,0.438l-0.016-0.016
	C267.085,199.875,267.132,199.734,267.163,199.625z M245.038,199.953h-0.016c-0.031-0.125-0.062-0.25-0.094-0.375
	C244.96,199.688,244.991,199.812,245.038,199.953z"/>
<path d="M224.054,170.656c5.891,0,10.672-4.766,10.672-10.656s-4.781-10.656-10.672-10.656S213.382,154.11,213.382,160
	S218.163,170.656,224.054,170.656z"/>
<g>
</g>
<g>
</g>
<g>
</g>
<g>
</g>
<g>
</g>
<g>
</g>
<g>
</g>
<g>
</g>
<g>
</g>
<g>
</g>
<g>
</g>
<g>
</g>
<g>
</g>
<g>
</g>
<g>
</g>
</svg>
